<svg xmlns="http://www.w3.org/2000/svg" viewBox="0 0 178 37.1" enable-background="new 0 0 178 37.1"><style type="text/css">.st0{fill:#FFFFFF;}</style><path class="st0" d="M26 14.6v-9.8l-26-4.8v33l14.7-2.2v-16.9zM26 14.6v14.6l-11.3 1.6v6.3l18.3-3.5v-18.5zM55 13.8v13.5h-1.8v-6.1h-6.9v6.1h-1.8v-13.5h1.8v5.9h6.9v-5.9h1.8zM67.4 16.7v10.6h-1.8v-1.6c-.3.5-.8 1-1.4 1.3s-1.3.5-2 .5c-.8 0-1.6-.2-2.2-.5-.7-.3-1.2-.9-1.6-1.5-.4-.7-.6-1.5-.6-2.5v-6.2h1.7v6c0 1 .3 1.8.8 2.4.5.6 1.3.8 2.2.8.9 0 1.7-.3 2.2-.9.5-.6.8-1.4.8-2.5v-5.8h1.9zM85.3 17c.6.3 1.2.9 1.5 1.5.4.7.6 1.5.6 2.5v6.3h-1.7v-6c0-1.1-.3-1.9-.8-2.4-.5-.6-1.2-.8-2.1-.8-.9 0-1.6.3-2.2.9-.5.6-.8 1.4-.8 2.5v5.8h-1.8v-6c0-1.1-.3-1.9-.8-2.4-.5-.6-1.2-.9-2.1-.9-.9 0-1.6.3-2.2.9-.5.6-.8 1.4-.8 2.5v5.8h-1.8v-10.5h1.8v1.5c.3-.6.8-1 1.4-1.3.6-.3 1.2-.4 1.9-.4.9 0 1.7.2 2.4.6.7.4 1.2 1 1.5 1.8.3-.7.8-1.3 1.5-1.7.7-.4 1.4-.6 2.3-.6.9-.1 1.6 0 2.2.4zM93.7 17.1c.7-.4 1.5-.6 2.4-.6 1 0 1.8.2 2.6.7.8.5 1.4 1.1 1.8 1.9.4.8.7 1.8.7 2.9 0 1.1-.2 2-.7 2.9-.4.8-1 1.5-1.8 2s-1.6.7-2.6.7c-.9 0-1.7-.2-2.4-.6-.7-.4-1.2-.9-1.6-1.5v2h-1.8v-14.6h1.8v5.7c.3-.6.9-1.1 1.6-1.5zm5.1 2.7c-.3-.6-.8-1-1.3-1.4-.5-.3-1.2-.5-1.8-.5-.6 0-1.2.2-1.8.5-.5.3-1 .8-1.3 1.4s-.5 1.3-.5 2.1.2 1.5.5 2.1c.3.6.8 1.1 1.3 1.4.5.3 1.1.5 1.8.5s1.3-.2 1.8-.5 1-.8 1.3-1.4c.3-.6.5-1.3.5-2.1s-.2-1.5-.5-2.1zM105.2 12.9v14.3h-1.8v-14.3h1.8zM117.8 22.6h-8.5c.1 1 .4 1.9 1.1 2.4.7.6 1.4.9 2.4.9.8 0 1.4-.2 1.9-.5.5-.4.9-.8 1.1-1.4h1.9c-.3 1-.9 1.8-1.7 2.5-.9.6-1.9 1-3.2 1-1 0-1.9-.2-2.7-.7s-1.4-1.1-1.9-1.9c-.5-.8-.7-1.8-.7-2.9 0-1.1.2-2.1.7-2.9.4-.8 1.1-1.5 1.8-1.9.8-.4 1.7-.7 2.7-.7 1 0 1.9.2 2.7.7.8.4 1.4 1 1.8 1.8.4.8.6 1.6.6 2.6v1zm-2.2-3.1c-.3-.5-.7-.9-1.2-1.1-.5-.3-1.1-.4-1.7-.4-.9 0-1.6.3-2.3.9-.6.6-1 1.4-1.1 2.4h6.7c0-.8-.1-1.4-.4-1.8zM135.9 27.3h-1.8l-7.1-10.7v10.7h-1.8v-13.5h1.8l7.1 10.7v-10.7h1.8v13.5zM140.9 26.8c-.8-.5-1.4-1.1-1.9-1.9-.5-.8-.7-1.8-.7-2.9 0-1.1.2-2 .7-2.9.5-.8 1.1-1.5 1.9-1.9.8-.4 1.7-.7 2.7-.7s1.9.2 2.7.7c.8.4 1.5 1.1 1.9 1.9.5.8.7 1.8.7 2.9 0 1.1-.2 2.1-.7 2.9-.5.8-1.1 1.5-2 1.9-.8.5-1.7.7-2.7.7-.9-.1-1.8-.3-2.6-.7zm4.4-1.4c.6-.3 1-.7 1.3-1.3.3-.6.5-1.3.5-2.2 0-.9-.2-1.6-.5-2.2-.3-.6-.8-1-1.3-1.3-.5-.3-1.1-.4-1.8-.4-.6 0-1.2.1-1.8.4-.5.3-1 .7-1.3 1.3-.3.6-.5 1.3-.5 2.2 0 .9.2 1.6.5 2.2.3.6.7 1 1.3 1.3.5.3 1.1.4 1.7.4.8.1 1.4-.1 1.9-.4zM153.5 18.1v6.3c0 .5.1.9.3 1.1.2.2.6.3 1.1.3h1.3v1.5h-1.6c-1 0-1.7-.2-2.2-.7-.5-.5-.7-1.2-.7-2.2v-6.3h-1.4v-1.5h1.4v-2.6h1.8v2.7h2.8v1.5h-2.8zM168 22.6h-8.5c.1 1 .4 1.9 1.1 2.4.7.6 1.4.9 2.4.9.8 0 1.4-.2 1.9-.5.5-.4.9-.8 1.1-1.4h1.9c-.3 1-.9 1.8-1.7 2.5s-1.9 1-3.2 1c-1 0-1.9-.2-2.7-.7s-1.4-1.1-1.9-1.9c-.5-.8-.7-1.8-.7-2.9 0-1.1.2-2.1.7-2.9.4-.8 1.1-1.5 1.8-1.9.8-.4 1.7-.7 2.7-.7 1 0 1.9.2 2.7.7.8.4 1.4 1 1.8 1.8.4.8.6 1.6.6 2.6.1.3 0 .6 0 1zm-2.2-3.1c-.3-.5-.7-.9-1.2-1.1-.5-.3-1.1-.4-1.7-.4-.9 0-1.6.3-2.3.9s-1 1.4-1.1 2.4h6.7c0-.8-.1-1.4-.4-1.8zM171.9 27c-.6-.3-1.2-.7-1.5-1.2-.4-.5-.6-1.1-.6-1.7h1.8c.1.5.3 1 .7 1.3.4.3 1 .5 1.8.5.7 0 1.2-.1 1.6-.4.4-.3.6-.7.6-1.1 0-.5-.2-.8-.6-1s-1.1-.4-1.9-.7c-.8-.2-1.4-.4-1.9-.6-.5-.2-.9-.5-1.3-.9s-.5-1-.5-1.7c0-.5.2-1 .5-1.5s.8-.8 1.4-1.1c.6-.3 1.3-.4 2-.4 1.2 0 2.1.3 2.8.9.7.6 1.1 1.4 1.2 2.4h-1.8c0-.6-.3-1-.7-1.3-.4-.3-1-.5-1.6-.5-.6 0-1.1.1-1.5.4-.4.3-.6.6-.6 1.1 0 .3.1.6.3.9.2.2.5.4.9.5.3.1.8.3 1.4.5.8.2 1.4.4 1.9.6.5.2.9.5 1.2.9s.5.9.5 1.6c0 .6-.2 1.1-.5 1.6s-.8.8-1.4 1.1c-.6.3-1.3.4-2 .4-.8-.2-1.5-.3-2.2-.6z"/></svg>