<?xml version="1.0" encoding="utf-8"?>
<!-- Generator: Adobe Illustrator 23.0.1, SVG Export Plug-In . SVG Version: 6.00 Build 0)  -->
<svg version="1.1" id="Layer_1" xmlns="http://www.w3.org/2000/svg" xmlns:xlink="http://www.w3.org/1999/xlink" x="0px" y="0px"
	 viewBox="0 0 1920 1080" style="enable-background:new 0 0 1920 1080;" xml:space="preserve">
<style type="text/css">
	.st0{fill:url(#SVGID_1_);}
	.st1{opacity:0.39;fill:#FFFFFF;}
	.st2{opacity:0.17;fill:#FFFFFF;}
	.st3{opacity:0.11;}
	.st4{fill:#512DA8;}
	.st5{fill:#FFFFFF;}
	.st6{opacity:0.11;fill:#512DA8;}
</style>
<g>
	<linearGradient id="SVGID_1_" gradientUnits="userSpaceOnUse" x1="960" y1="-9.094947e-13" x2="960" y2="1596.7473">
		<stop  offset="0.1694" style="stop-color:#FFFFFF"/>
		<stop  offset="1" style="stop-color:#3E4C59"/>
	</linearGradient>
	<rect class="st0" width="1920" height="1080"/>
	<polygon class="st1" points="184,644.5 68.1,667.2 50.2,469 162.3,446.8 	"/>
	<polygon class="st1" points="1290.5,446.8 1174.3,469.5 1147.7,371.2 1262,348.6 	"/>
	<polygon class="st2" points="687.4,529.5 505.8,565.1 479.6,408.4 656.5,373.4 	"/>
	<polygon class="st1" points="1532.1,612.5 1472,624.2 1458.4,575 1518,563.4 	"/>
	<polygon class="st1" points="903.8,624.7 814.7,642 786.5,494.5 873.5,477.5 	"/>
	<polygon class="st1" points="1437.4,501.8 1256.9,537 1173.8,240.9 1345.5,206.9 	"/>
	<polygon class="st1" points="895.7,968.9 771.2,992.8 745.6,795.7 866.3,772.3 	"/>
	<polygon class="st1" points="801.5,860 679.4,883.5 666.2,783.4 786.4,760 	"/>
	<g class="st3">
		<polygon class="st4" points="820.1,156.5 711.3,178.2 685.7,80 792.6,58.6 		"/>
	</g>
	<polygon class="st2" points="1435.9,848.9 1240.8,886.4 1208.5,730.5 1398.9,693.6 	"/>
	<polygon class="st1" points="1671.6,941.4 1576,959.7 1542.1,813 1635.5,795 	"/>
	<polygon class="st5" points="543.4,382.8 457.4,399.8 429.7,250.1 513.5,233.3 	"/>
	<polygon class="st5" points="1784.1,254.3 1696.5,271.6 1640.6,125.7 1726,108.7 	"/>
	<polygon class="st5" points="1699.4,328.6 1656.8,336.9 1631.6,266.4 1673.7,258.1 	"/>
	<g class="st3">
		<polygon class="st4" points="1173.1,183.5 1132.2,191.6 1109.9,120.6 1150.4,112.6 		"/>
	</g>
	<g class="st3">
		<polygon class="st4" points="260.4,202.9 220.5,210.9 207.7,138.7 247,130.8 		"/>
	</g>
	<g class="st3">
		<polygon class="st4" points="1452.2,77 1411.7,85.1 1385.2,14.7 1425.2,6.7 		"/>
	</g>
	<polygon class="st1" points="660.1,1080 655.7,1027.8 561.7,1045.9 564.1,1080 	"/>
	<polygon class="st1" points="0,553.9 100.1,534.2 88.8,433.7 0,451.3 	"/>
	<polygon class="st6" points="1305.9,0 1325.9,52.9 1409.4,36.2 1395.2,0 	"/>
</g>
</svg>
